<svg version="1.1" id="pixmeesh_logo" xmlns="http://www.w3.org/2000/svg" xmlns:xlink="http://www.w3.org/1999/xlink" width="1000px" height="220px" viewBox="0 0 1000 220" enable-background="new 0 0 1000 220"  preserveAspectRatio="xMinYMin meet">

            <symbol id="logo_symbol" viewBox="-468.995 -106.463 937.99 212.926">
                    <use xlink:href="#meesh" width="110.14" height="212.071" x="-55.07" y="-106.035" transform="translate(-413.925 .428)" overflow="visible"/>
                    <use xlink:href="#pixmeesh" width="771.275" height="212.773" x="-385.637" y="-106.387" transform="translate(83.357 -.076)" overflow="visible"/>
                    <use xlink:href="#eyes_cover" width="97" height="41" x="-49" y="-21" transform="translate(-413.996 75.537)" overflow="hidden"/>
            </symbol>
            <symbol id="meesh" viewBox="-55.07 -106.035 110.14 212.071">
                 <path fill="#FD1C15" d="M-16.76 34.89h49.94V-84.146h21.89v-21.89H10.428l.277 92.353h-21.993v-92.353H-55.07v21.89h21.207l.67 119.034zM-55.07 106.036V43.098H55.07v62.938H-55.07zm43.782-41.047h-21.89V85.51h21.89V64.99zm44.467 0H11.287V85.51h21.89V64.99z"/>
            </symbol>
            <symbol id="pixmeesh" viewBox="-385.637 -106.387 771.275 212.773">
                 <path fill="#FD1C15" d="M-385.637 69.02s19.536.747 41.552.747h7.916c18.06 0 29.187-9.644 29.187-30.176v-83.113c0-20.537-11.127-27.936-29.186-27.936h-7.666c-8.658 0-18.3.734-18.3.734v-35.66h-23.5V69.02zm23.5-19.786v-99.922h21.766c6.426 0 9.892 3.942 9.892 10.895v78.15c0 6.67-3.465 10.877-9.893 10.877h-21.768zM-181.142.746l24.842-71.472h-25.583l-17.81 54.914-17.818-54.914h-25.584L-218.24.746l-24.854 68.273h25.583l17.818-51.445 17.81 51.444h25.582L-181.142.745zM-137.178 69.02l94.982.747h6.672c18.057 0 29.195-7.174 29.195-27.702v-112.79h-23.5v109.08c0 6.672-3.466 10.88-9.896 10.88h-20.28v-119.96h-23.498V43.3c0 5.934 0 5.934-4.944 5.934h-25.233v-119.96h-23.5V69.02zM56.73 69.767c28.205 0 35.115-8.658 35.115-31.66v-48.493l-54.158-.477V-39.55c0-10.407 4.452-12.135 11.63-12.135h8.658c7.153 0 11.614 1.728 11.614 12.135v12.854h22.255v-13.1c0-22.762-6.67-31.665-35.114-31.665H49.32c-28.443 0-35.123 8.902-35.123 31.665v77.9c0 23.002 6.68 31.66 35.123 31.66h7.413zM37.69 37.86V9.17h30.675V37.86c0 10.14-4.44 12.116-11.63 12.116h-7.414c-7.18 0-11.632-1.976-11.632-12.117zM156.656 69.767c28.204 0 35.134-8.658 35.134-31.66v-48.493l-54.177-.477V-39.55c0-10.407 4.46-12.135 11.646-12.135h8.64c7.19 0 11.632 1.728 11.632 12.135v12.854h22.26v-13.1c0-22.762-6.688-31.665-35.135-31.665h-7.397c-28.46 0-35.146 8.902-35.146 31.665v77.9c0 23.002 6.687 31.66 35.146 31.66h7.396zM137.613 37.86V9.17h30.672V37.86c0 10.14-4.44 12.116-11.63 12.116h-7.396c-7.187 0-11.647-1.976-11.647-12.117zM249.853 69.767c28.2 0 33.89-8.658 33.89-31.66V26.98h-22.265v12.362c0 10.146-4.45 10.633-11.625 10.633h-2.47c-7.174 0-11.613-.487-11.613-10.633V28.215c0-7.916 4.186-8.9 12.854-12.866l16.574-6.433c12.112-4.7 21.035-9.637 21.035-27.452v-20.027c0-23.01-6.686-32.653-35.14-32.653h-3.71c-28.44 0-35.118 8.66-35.118 31.667v12.854h23.505v-13.86c0-10.133 4.44-10.874 11.614-10.874h3.71c7.173 0 11.635 1.717 11.635 11.88v17.05c0 10.153-6.19 11.637-13.1 14.604l-16.35 6.67c-11.13 4.458-21.016 7.924-21.016 27.22V38.11c0 23 6.677 31.658 35.12 31.658h2.47zM362.154 37.383c0 6.67-3.466 10.877-9.908 10.877h-21.492V-71.7H307.23v178.087h23.524V68.045h25.71c18.047 0 29.174-6.427 29.174-26.954V-71.7h-23.483V37.383zM-284.993 69.02h21.704V-70.726h-21.703V69.02zM-263.84 84.428h-20.913v21.72h20.914z"/>
            </symbol>
            <symbol id="eyes_cover" viewBox="-49 -21 97 41">
                <path opacity="0" fill="#FD1C15" d="M48-21h-97v41h97z"/>
            </symbol>
            <use xlink:href="#logo_symbol" width="937.99" height="212.926" x="-468.995" y="-106.463" transform="matrix(1 0 0 -1 496.9961 110.5371)" overflow="visible"/>
</svg>